<?xml version="1.0" encoding="utf-8"?>
<!-- Generator: Adobe Illustrator 16.2.0, SVG Export Plug-In . SVG Version: 6.00 Build 0)  -->
<!DOCTYPE svg PUBLIC "-//W3C//DTD SVG 1.1//EN" "http://www.w3.org/Graphics/SVG/1.1/DTD/svg11.dtd">
<svg version="1.1" id="Layer_1" xmlns="http://www.w3.org/2000/svg" xmlns:xlink="http://www.w3.org/1999/xlink" x="0px" y="0px"
	 width="32px" height="38px" viewBox="0 0 32 38" enable-background="new 0 0 32 38" xml:space="preserve">
<path fill-rule="evenodd" clip-rule="evenodd" fill="#FFFFFF" d="M31.069,19.042C29.865,11.788,24.82,7.73,17.641,8.271
	C17.125,8.31,17,8.24,17.188,7.707c0.807-2.278,3.703-4.028,6.063-3.532c0.768,0.162,1.088-0.111,1.323-0.737
	c0.173-0.462,0.35-0.921,0.375-1.42c0.063-1.25-0.413-1.832-1.659-1.965c-0.884-0.095-1.768-0.074-2.64,0.152
	c-3.59,0.931-5.358,3.524-6.02,6.923c-0.226,1.158-0.653,1.282-1.632,1.254c-3.561-0.1-6.813,0.831-9.263,3.533
	c-3.655,4.031-4.373,8.906-3.248,14.004c1.741,7.895,9.186,12.944,17.243,11.958c7.761-0.949,13.608-7.658,13.599-15.601
	C31.322,21.192,31.248,20.115,31.069,19.042z M11.486,24.753c-0.71,0.11-1.614-0.157-1.575,1.211
	c0.051,1.828-1.179,2.518-2.923,1.854c-0.607-0.231-0.635-0.788-0.738-1.291c-0.313-1.52-0.308-1.496-1.822-1.679
	c-0.51-0.062-1.287,0.176-1.449-0.499c-0.211-0.88-0.301-1.864,0.02-2.717c0.178-0.473,0.96-0.385,1.447-0.381
	c1.15,0.009,1.448-0.481,1.438-1.583c-0.016-1.674,1.92-2.679,3.354-1.833c0.466,0.274,0.435,0.787,0.507,1.224
	c0.294,1.766,0.284,1.768,2.074,1.944c1.049,0.104,1.161,0.294,1.187,2.01C13.028,24.537,13.024,24.515,11.486,24.753z
	 M19.921,27.705c-1.586,0.026-2.829-1.188-2.822-2.756c0.006-1.505,1.248-2.749,2.75-2.756c1.504-0.007,2.756,1.227,2.772,2.732
	C22.638,26.456,21.45,27.679,19.921,27.705z M26.287,24.54c-1.464,0.002-2.643-1.16-2.639-2.602c0.003-1.44,1.185-2.606,2.643-2.607
	c1.465,0,2.633,1.157,2.632,2.609C28.922,23.391,27.759,24.538,26.287,24.54z"/>
</svg>
